# xmcd
#
# Track frame offsets: 
#        150
#        18632
#        33041
#        51286
#        65369
#        80283
#        96750
#        109238
#        125113
#        137841
#        156346
#        172754
#        186896
#        200720
#        222941
#        236263
#        246576
#
# Disc length: 3441 seconds
#
# Revision: 0
# Processed by: cddbd v1.5.2PL0 Copyright (c) Steve Scherf et al.
# Submitted via: ExactAudioCopy v0.95b4
#
DISCID=f10d6f11
DTITLE=Leland Martin - Leland Martin
DYEAR=2005
DGENRE=Country
TTITLE0=Country As The Day Is Long
TTITLE1=Wayfaring Stranger
TTITLE2=Still They Call Me Love
TTITLE3=Same Old Song And Dance
TTITLE4=American Made
TTITLE5=She Rules The Roost
TTITLE6=On More Pillow Fight
TTITLE7=Don´t Forget To Remember
TTITLE8=Girl On The Billboard
TTITLE9=Our American Heros
TTITLE10=My My
TTITLE11=The Wreckin´ Machine
TTITLE12=Baby Confess
TTITLE13=The Walk
TTITLE14=Stone Cold Fingers
TTITLE15=Six Days On The Road
TTITLE16=Lookin´ At The World Through A Windshield
EXTD=
EXTT0=
EXTT1=
EXTT2=
EXTT3=
EXTT4=
EXTT5=
EXTT6=
EXTT7=
EXTT8=
EXTT9=
EXTT10=
EXTT11=
EXTT12=
EXTT13=
EXTT14=
EXTT15=
EXTT16=
PLAYORDER=
